<?xml version="1.0" encoding="UTF-8" standalone="no"?>
<!-- Created with Inkscape (http://www.inkscape.org/) -->

<svg
   xmlns:dc="http://purl.org/dc/elements/1.1/"
   xmlns:cc="http://creativecommons.org/ns#"
   xmlns:rdf="http://www.w3.org/1999/02/22-rdf-syntax-ns#"
   xmlns:svg="http://www.w3.org/2000/svg"
   xmlns="http://www.w3.org/2000/svg"
   xmlns:sodipodi="http://sodipodi.sourceforge.net/DTD/sodipodi-0.dtd"
   xmlns:inkscape="http://www.inkscape.org/namespaces/inkscape"
   width="10.58077mm"
   height="10.591702mm"
   viewBox="0 0 10.58077 10.591702"
   version="1.1"
   id="svg8"
   inkscape:version="0.92.5 (2060ec1f9f, 2020-04-08)"
   sodipodi:docname="rysunek.svg">
  <defs
     id="defs2" />
  <sodipodi:namedview
     id="base"
     pagecolor="#ffffff"
     bordercolor="#666666"
     borderopacity="1.0"
     inkscape:pageopacity="0.0"
     inkscape:pageshadow="2"
     inkscape:zoom="0.35"
     inkscape:cx="-844.29055"
     inkscape:cy="80.015818"
     inkscape:document-units="mm"
     inkscape:current-layer="layer1"
     showgrid="false"
     inkscape:window-width="1920"
     inkscape:window-height="1018"
     inkscape:window-x="1672"
     inkscape:window-y="-8"
     inkscape:window-maximized="1" />
  <metadata
     id="metadata5">
    <rdf:RDF>
      <cc:Work
         rdf:about="">
        <dc:format>image/svg+xml</dc:format>
        <dc:type
           rdf:resource="http://purl.org/dc/dcmitype/StillImage" />
        <dc:title></dc:title>
      </cc:Work>
    </rdf:RDF>
  </metadata>
  <g
     inkscape:label="Layer 1"
     inkscape:groupmode="layer"
     id="layer1"
     transform="translate(-141.36437,-159.41248)">
    <ellipse
       style="display:inline;opacity:1;fill:#ffff00;fill-opacity:1;stroke:#030303;stroke-width:0.2357306;stroke-linecap:butt;stroke-linejoin:round;stroke-miterlimit:4;stroke-dasharray:none;stroke-opacity:1"
       id="path23045"
       cx="146.65475"
       cy="164.69351"
       rx="5.1725039"
       ry="5.1631641"
       inkscape:export-xdpi="96"
       inkscape:export-ydpi="96" />
    <path
       inkscape:export-ydpi="96"
       inkscape:export-xdpi="96"
       inkscape:connector-curvature="0"
       id="rect4306-2"
       d="m 145.18457,162.74929 c -0.0589,0 -0.10624,0.0458 -0.10624,0.10272 v 1.44192 a 1.742527,1.6838174 0 0 0 -0.65522,1.31372 1.742527,1.6838174 0 0 0 1.74251,1.68385 1.742527,1.6838174 0 0 0 1.47641,-0.79337 c 0.99431,0.004 2.18683,-0.004 2.19712,-0.0211 0.0122,-0.0203 -0.80898,-1.40652 -1.33277,-2.26762 v -1.35737 c 0,-0.057 -0.0474,-0.10272 -0.10625,-0.10272 z"
       style="display:inline;opacity:0.45800003;fill:#000000;fill-opacity:1;stroke:#030303;stroke-width:0.08317807;stroke-linecap:butt;stroke-linejoin:round;stroke-miterlimit:4;stroke-dasharray:none;stroke-opacity:1" />
    <path
       inkscape:export-ydpi="96"
       inkscape:export-xdpi="96"
       inkscape:connector-curvature="0"
       id="rect4306"
       d="m 145.05371,162.45178 c -0.0589,0 -0.10626,0.0458 -0.10626,0.10273 v 1.44193 a 1.742527,1.6838174 0 0 0 -0.65522,1.31371 1.742527,1.6838174 0 0 0 1.74252,1.68384 1.742527,1.6838174 0 0 0 1.47641,-0.79337 c 0.99428,0.004 2.18683,-0.004 2.19712,-0.0211 0.0121,-0.0203 -0.80898,-1.40653 -1.33277,-2.26762 v -1.35737 c 0,-0.057 -0.0473,-0.10272 -0.10626,-0.10272 z"
       style="display:inline;opacity:1;fill:#000000;fill-opacity:1;stroke:#030303;stroke-width:0.08317807;stroke-linecap:butt;stroke-linejoin:round;stroke-miterlimit:4;stroke-dasharray:none;stroke-opacity:1" />
    <path
       inkscape:connector-curvature="0"
       id="path2772-1"
       d="m 148.00216,165.8901 c -0.20501,-0.19811 -0.006,-0.53221 0.26767,-0.44841 0.18432,0.0566 0.24932,0.22436 0.15371,0.39699 -0.085,0.15366 -0.28974,0.17863 -0.42138,0.0514 z"
       style="display:inline;opacity:0.472;fill:#000000;fill-opacity:1;stroke:#030303;stroke-width:0.10869561;stroke-miterlimit:4;stroke-dasharray:none;stroke-opacity:1" />
    <path
       inkscape:connector-curvature="0"
       id="path2692-4"
       d="m 145.35522,165.02186 1e-4,-0.93646 h 0.36952 0.36951 l -0.0505,0.60074 -0.0505,0.60075 h 0.26606 c 0.26142,0 0.26604,0.005 0.26604,0.28136 0,0.31955 -0.0334,0.33602 -0.74978,0.37007 l -0.42067,0.02 z"
       style="display:inline;opacity:0.472;fill:#000000;fill-opacity:1;stroke:#030303;stroke-width:0.10869561;stroke-miterlimit:4;stroke-dasharray:none;stroke-opacity:1" />
    <path
       inkscape:connector-curvature="0"
       id="path2772"
       d="m 147.9273,165.71629 c -0.20501,-0.19809 -0.006,-0.53221 0.26767,-0.44841 0.18433,0.0566 0.24931,0.22437 0.15371,0.39699 -0.0851,0.15366 -0.28974,0.17863 -0.42138,0.0514 z"
       style="display:inline;fill:#000000;fill-opacity:1;stroke:#030303;stroke-width:0.10869561;stroke-miterlimit:4;stroke-dasharray:none;stroke-opacity:1" />
    <path
       inkscape:connector-curvature="0"
       id="path2554-7"
       d="m 146.69742,165.04627 -0.29542,-0.91259 0.31913,-0.0245 c 0.35343,-0.0271 0.31478,-0.0838 0.51554,0.75423 l 0.0677,0.2827 0.12533,-0.53032 0.12534,-0.53033 0.31585,0.0243 0.31586,0.0242 -0.0955,0.32936 c -0.0526,0.18116 -0.16689,0.59175 -0.25407,0.91244 l -0.15851,0.58308 h -0.34291 -0.34291 z"
       style="display:inline;opacity:0.472;fill:#000000;fill-opacity:1;stroke:#030303;stroke-width:0.10869561;stroke-miterlimit:4;stroke-dasharray:none;stroke-opacity:1" />
    <path
       inkscape:connector-curvature="0"
       id="path2692"
       d="m 145.28037,164.84806 1e-4,-0.93646 h 0.36951 0.36952 l -0.0505,0.60075 -0.0505,0.60074 h 0.26605 c 0.26142,0 0.26605,0.005 0.26605,0.28136 0,0.31954 -0.0334,0.33602 -0.74977,0.37006 l -0.42067,0.02 z"
       style="display:inline;fill:#000000;fill-opacity:1;stroke:#030303;stroke-width:0.10869561;stroke-miterlimit:4;stroke-dasharray:none;stroke-opacity:1" />
    <path
       inkscape:connector-curvature="0"
       id="path2554"
       d="m 146.62257,164.87247 -0.29543,-0.91259 0.31913,-0.0245 c 0.35343,-0.0271 0.31478,-0.0838 0.51554,0.75421 l 0.0677,0.28271 0.12533,-0.53033 0.12534,-0.53031 0.31585,0.0242 0.31588,0.0243 -0.0955,0.32935 c -0.0526,0.18115 -0.1669,0.59175 -0.25408,0.91244 l -0.1585,0.58307 h -0.34292 -0.3429 z"
       style="display:inline;fill:#000000;fill-opacity:1;stroke:#030303;stroke-width:0.10869561;stroke-miterlimit:4;stroke-dasharray:none;stroke-opacity:1" />
    <path
       inkscape:export-ydpi="96"
       inkscape:export-xdpi="96"
       inkscape:connector-curvature="0"
       id="rect4306-2-1"
       d="m 145.06136,162.48324 c -0.0582,0 -0.10485,0.0456 -0.10485,0.10224 v 1.43509 a 1.719603,1.6758416 0 0 0 -0.64661,1.30749 1.719603,1.6758416 0 0 0 0.57169,1.24516 1.719603,1.6758416 0 0 1 -0.29341,-0.93515 1.719603,1.6758416 0 0 1 0.64661,-1.30749 v -1.4351 c 0,-0.0566 0.0467,-0.10224 0.10484,-0.10224 h 2.99983 v -0.20776 c 0,-0.0566 -0.0468,-0.10224 -0.10486,-0.10224 z"
       style="display:inline;opacity:0.61499999;fill:#000000;fill-opacity:1;stroke:#030303;stroke-width:0.08243318;stroke-linecap:butt;stroke-linejoin:round;stroke-miterlimit:4;stroke-dasharray:none;stroke-opacity:1" />
    <path
       style="display:inline;opacity:1;fill:#ffcc00;fill-opacity:1;stroke:#030303;stroke-width:0.0528059;stroke-linecap:butt;stroke-linejoin:round;stroke-miterlimit:4;stroke-dasharray:none;stroke-opacity:1"
       d="m 146.66408,159.57741 a 5.0355661,5.1012717 0 0 0 -5.03557,5.10126 5.0355661,5.1012717 0 0 0 5.03557,5.10124 5.0355661,5.1012717 0 0 0 5.03557,-5.10124 5.0355661,5.1012717 0 0 0 -5.03557,-5.10126 z m -0.0625,0.68108 c 0.9331,5.2e-4 1.86793,0.2998 2.61482,0.86949 2.35226,1.61481 2.35195,5.52732 -5.3e-4,7.14145 -2.2175,1.79847 -5.90556,0.64153 -6.73278,-2.11081 -1.01672,-2.6262 1.0504,-5.79018 3.82921,-5.89065 h 8e-5 c 0.0963,-0.006 0.19279,-0.01 0.28932,-0.009 z"
       id="path23045-0"
       inkscape:connector-curvature="0"
       inkscape:export-xdpi="96"
       inkscape:export-ydpi="96" />
    <path
       style="display:inline;opacity:0.47400004;fill:#060600;fill-opacity:1;stroke:#030303;stroke-width:0.2357306;stroke-linecap:butt;stroke-linejoin:round;stroke-miterlimit:4;stroke-dasharray:none;stroke-opacity:1"
       d="m 141.50784,164.21314 a 5.1725044,5.1631636 0 0 0 -0.0256,0.51004 5.1725044,5.1631636 0 0 0 5.17249,5.16314 5.1725044,5.1631636 0 0 0 5.17255,-5.16314 5.1725044,5.1631636 0 0 0 -0.0256,-0.46881 5.1725044,5.1631636 0 0 1 -5.14696,4.65277 5.1725044,5.1631636 0 0 1 -5.14688,-4.694 z"
       id="path23045-06"
       inkscape:connector-curvature="0"
       inkscape:export-xdpi="96"
       inkscape:export-ydpi="96" />
    <path
       style="display:inline;opacity:0.47400004;fill:#ffffff;fill-opacity:1;stroke:none;stroke-width:0.2357306;stroke-linecap:butt;stroke-linejoin:round;stroke-miterlimit:4;stroke-dasharray:none;stroke-opacity:1"
       d="m 151.88912,165.27399 a 5.1725044,5.1631636 0 0 0 0.0256,-0.51003 5.1725044,5.1631636 0 0 0 -5.17249,-5.16314 5.1725044,5.1631636 0 0 0 -5.17256,5.16314 5.1725044,5.1631636 0 0 0 0.0256,0.46881 5.1725044,5.1631636 0 0 1 5.14696,-4.65277 5.1725044,5.1631636 0 0 1 5.14688,4.69399 z"
       id="path23045-06-5"
       inkscape:connector-curvature="0"
       inkscape:export-xdpi="96"
       inkscape:export-ydpi="96" />
  </g>
</svg>
