<?xml version="1.0" encoding="UTF-8" standalone="no"?>
<!-- Created with Inkscape (http://www.inkscape.org/) -->

<svg
   xmlns:dc="http://purl.org/dc/elements/1.1/"
   xmlns:cc="http://creativecommons.org/ns#"
   xmlns:rdf="http://www.w3.org/1999/02/22-rdf-syntax-ns#"
   xmlns:svg="http://www.w3.org/2000/svg"
   xmlns="http://www.w3.org/2000/svg"
   xmlns:sodipodi="http://sodipodi.sourceforge.net/DTD/sodipodi-0.dtd"
   xmlns:inkscape="http://www.inkscape.org/namespaces/inkscape"
   width="6.8791671mm"
   height="6.8791699mm"
   viewBox="0 0 6.8791671 6.8791699"
   version="1.1"
   id="svg8"
   inkscape:version="0.92.4 (5da689c313, 2019-01-14)"
   sodipodi:docname="flag-icon.svg">
  <defs
     id="defs2" />
  <sodipodi:namedview
     id="base"
     pagecolor="#ffffff"
     bordercolor="#666666"
     borderopacity="1.0"
     inkscape:pageopacity="0.0"
     inkscape:pageshadow="2"
     inkscape:zoom="15.839192"
     inkscape:cx="9.6173344"
     inkscape:cy="2.1653979"
     inkscape:document-units="mm"
     inkscape:current-layer="layer1"
     showgrid="false"
     inkscape:window-width="1920"
     inkscape:window-height="1018"
     inkscape:window-x="1672"
     inkscape:window-y="-8"
     inkscape:window-maximized="1" />
  <metadata
     id="metadata5">
    <rdf:RDF>
      <cc:Work
         rdf:about="">
        <dc:format>image/svg+xml</dc:format>
        <dc:type
           rdf:resource="http://purl.org/dc/dcmitype/StillImage" />
        <dc:title />
      </cc:Work>
    </rdf:RDF>
  </metadata>
  <g
     inkscape:label="Layer 1"
     inkscape:groupmode="layer"
     id="layer1"
     transform="translate(55.600298,-222.50091)">
    <path
       style="display:inline;fill:#000000;fill-opacity:1;stroke:none;stroke-width:0.01551427;stroke-opacity:1"
       inkscape:connector-curvature="0"
       d="m -48.87415,223.33098 c -0.08269,-0.0361 -0.184838,-0.0361 -0.267512,0 -0.320109,0.13366 -0.680775,0.20316 -1.047138,0.20179 -0.535473,0.009 -1.053228,-0.14397 -1.43695,-0.42421 -0.442982,-0.32522 -1.041924,-0.50292 -1.661666,-0.493 -0.499107,-0.003 -0.987089,0.1106 -1.395675,0.32561 v -0.0963 c 0,-0.18995 -0.205315,-0.34396 -0.458603,-0.34396 -0.253289,0 -0.458604,0.15399 -0.458604,0.34396 v 6.19125 c 0,0.18996 0.205315,0.34396 0.458604,0.34396 0.25327,0 0.458603,-0.15399 0.458603,-0.34396 v -2.98098 c 0.05066,-0.004 0.09892,-0.0179 0.139103,-0.0413 0.363694,-0.20088 0.804938,-0.30716 1.256572,-0.30268 0.536458,-0.009 1.055343,0.14361 1.440014,0.42421 0.44214,0.32474 1.0399,0.50242 1.65862,0.493 0.474171,0.004 0.939259,-0.0976 1.336058,-0.29237 0.08491,-0.0441 0.134374,-0.11745 0.131472,-0.19491 v -2.60833 c 0.0015,-0.0831 -0.05697,-0.16026 -0.152898,-0.20179 z m -6.114701,5.70512 c 0,0.0633 -0.06843,0.11465 -0.152861,0.11465 -0.08443,0 -0.152862,-0.0513 -0.152862,-0.11465 v -6.19125 c 0,-0.0633 0.06843,-0.11465 0.152862,-0.11465 0.08443,0 0.152861,0.0513 0.152861,0.11465 z m 5.96184,-2.89039 c -0.346084,0.16754 -0.749888,0.25562 -1.161789,0.25339 -0.535473,0.009 -1.053228,-0.14397 -1.43695,-0.42421 -0.442982,-0.32522 -1.041924,-0.50292 -1.661666,-0.49301 -0.498784,-0.004 -0.986766,0.10906 -1.395675,0.32332 v -2.56824 c 0.381787,-0.25909 0.880894,-0.39931 1.395675,-0.39211 0.536458,-0.009 1.055343,0.14362 1.440014,0.42421 0.44214,0.32475 1.0399,0.50242 1.65862,0.493 0.404825,0.002 0.804025,-0.0711 1.161789,-0.21325 v 2.5969 z"
       id="path7268" />
    <path
       style="opacity:1;fill:#ffffff;fill-opacity:1;fill-rule:nonzero;stroke:#000000;stroke-width:0;stroke-linecap:butt;stroke-linejoin:round;stroke-miterlimit:4;stroke-dasharray:none;stroke-dashoffset:0;stroke-opacity:1;paint-order:markers fill stroke"
       d="m 19.440567,14.665758 c -1.640192,-0.135157 -2.976633,-0.618452 -4.500673,-1.627573 -1.269002,-0.84025 -2.38286,-1.301195 -3.874645,-1.603431 -0.633551,-0.128358 -0.896436,-0.144922 -2.2939173,-0.144539 -1.3977953,3.79e-4 -1.6610954,0.01713 -2.3015319,0.146428 -0.8464421,0.170883 -1.7301003,0.442223 -2.4208326,0.743351 -0.2707927,0.118053 -0.5051797,0.214643 -0.5208598,0.214643 -0.01568,0 -0.028509,-2.158844 -0.028509,-4.797433 V 2.7997717 L 3.7397169,2.6481914 C 4.4903045,2.1743662 5.5723726,1.7486844 6.5806268,1.5305875 7.0393487,1.4313607 7.5097427,1.3898393 8.455659,1.3650795 c 1.096493,-0.028701 1.3654952,-0.015512 2.043748,0.1002072 1.397669,0.2384611 2.563387,0.7088374 3.728975,1.5046711 1.56148,1.0661383 3.226037,1.630694 5.286767,1.793074 1.502049,0.1183573 3.418294,-0.1104656 4.771494,-0.5697743 l 0.552428,-0.1875071 -0.0011,4.8731396 -0.0011,4.873139 -0.330379,0.141626 c -1.018614,0.436654 -2.07925,0.684261 -3.311734,0.77313 -0.941528,0.06789 -0.917726,0.0679 -1.754235,-0.001 z"
       id="path4752"
       inkscape:connector-curvature="0"
       transform="matrix(0.26458333,0,0,0.26458333,-55.600298,222.50091)" />
  </g>
</svg>
