<?xml version="1.0" encoding="UTF-8" standalone="no"?>
<!-- Created with Inkscape (http://www.inkscape.org/) -->

<svg
   xmlns:dc="http://purl.org/dc/elements/1.1/"
   xmlns:cc="http://creativecommons.org/ns#"
   xmlns:rdf="http://www.w3.org/1999/02/22-rdf-syntax-ns#"
   xmlns:svg="http://www.w3.org/2000/svg"
   xmlns="http://www.w3.org/2000/svg"
   xmlns:sodipodi="http://sodipodi.sourceforge.net/DTD/sodipodi-0.dtd"
   xmlns:inkscape="http://www.inkscape.org/namespaces/inkscape"
   width="18.240934mm"
   height="10.71965mm"
   viewBox="0 0 18.240933 10.71965"
   version="1.1"
   id="svg8"
   sodipodi:docname="jumpLastPageRight.svg"
   inkscape:version="0.92.5 (2060ec1f9f, 2020-04-08)">
  <defs
     id="defs2">
    <clipPath
       clipPathUnits="userSpaceOnUse"
       id="clipPath1348">
      <path
         style="fill:none;stroke:#000000;stroke-width:0.26458332px;stroke-linecap:butt;stroke-linejoin:miter;stroke-opacity:1"
         d="m -4362.3177,108.48437 332.3828,203.39845 335.6901,-208.35939 c 0,0 -41.3411,315.84637 -72.7604,338.99741 -31.4193,23.15104 -444.8307,140.55989 -469.6354,122.36979 -24.8047,-18.19011 -162.0573,-340.65105 -152.1354,-352.22657 9.9218,-11.57552 26.4583,-104.17969 26.4583,-104.17969 z"
         id="path1350"
         inkscape:connector-curvature="0" />
    </clipPath>
    <clipPath
       id="clipEmfPath1"
       clipPathUnits="userSpaceOnUse">
      <path
         id="path891"
         d="M 11.039918,16.479878 58.799564,36.079733 98.239272,16.079881 75.039444,51.27962 c 0,0 -31.519766,3.919971 -33.67975,2.239984 C 39.19971,51.759617 23.439826,31.03977 22.719832,29.999778 21.919838,28.879786 11.039918,16.479878 11.039918,16.479878 Z"
         inkscape:connector-curvature="0" />
    </clipPath>
    <clipPath
       id="clipEmfPath2"
       clipPathUnits="userSpaceOnUse">
      <path
         id="path894"
         d="M -11.039918,19.519855 18.159865,31.519767 42.319687,19.199858 28.079792,40.799698 c 0,0 -19.2798572,2.399982 -20.5598477,1.35999 C 6.1599544,41.119695 -3.4399745,28.39979 -3.919971,27.759794 c -0.4799964,-0.639995 -7.119947,-8.239939 -7.119947,-8.239939 z"
         inkscape:connector-curvature="0" />
    </clipPath>
    <pattern
       y="0"
       x="0"
       height="6"
       width="6"
       patternUnits="userSpaceOnUse"
       id="EMFhbasepattern" />
    <clipPath
       id="clipPath1368"
       clipPathUnits="userSpaceOnUse">
      <path
         inkscape:connector-curvature="0"
         id="path1370"
         d="m -5228.0013,43.165363 512.6302,210.013017 423.3333,-214.973954 -249.7005,377.858074 c 0,0 -338.1706,42.16797 -361.3216,23.97787 -23.151,-18.19011 -191.8229,-240.60548 -200.0911,-252.181 -8.2683,-11.57552 -124.8503,-144.694007 -124.8503,-144.694007 z"
         style="fill:none;stroke:#000000;stroke-width:0.26458332px;stroke-linecap:butt;stroke-linejoin:miter;stroke-opacity:1" />
    </clipPath>
    <clipPath
       id="clipPath906"
       clipPathUnits="userSpaceOnUse">
      <path
         inkscape:connector-curvature="0"
         id="path904-4"
         d="m -5228.0013,43.165363 512.6302,210.013017 423.3333,-214.973954 -249.7005,377.858074 c 0,0 -338.1706,42.16797 -361.3216,23.97787 -23.151,-18.19011 -191.8229,-240.60548 -200.0911,-252.181 -8.2683,-11.57552 -124.8503,-144.694007 -124.8503,-144.694007 z"
         style="fill:none;stroke:#000000;stroke-width:0.26458332px;stroke-linecap:butt;stroke-linejoin:miter;stroke-opacity:1" />
    </clipPath>
    <clipPath
       id="clipPath1368-6"
       clipPathUnits="userSpaceOnUse">
      <path
         inkscape:connector-curvature="0"
         id="path1370-2"
         d="m -5228.0013,43.165363 512.6302,210.013017 423.3333,-214.973954 -249.7005,377.858074 c 0,0 -338.1706,42.16797 -361.3216,23.97787 -23.151,-18.19011 -191.8229,-240.60548 -200.0911,-252.181 -8.2683,-11.57552 -124.8503,-144.694007 -124.8503,-144.694007 z"
         style="fill:none;stroke:#000000;stroke-width:0.26458332px;stroke-linecap:butt;stroke-linejoin:miter;stroke-opacity:1" />
    </clipPath>
    <clipPath
       id="clipPath950"
       clipPathUnits="userSpaceOnUse">
      <path
         inkscape:connector-curvature="0"
         id="path948"
         d="m -5228.0013,43.165363 512.6302,210.013017 423.3333,-214.973954 -249.7005,377.858074 c 0,0 -338.1706,42.16797 -361.3216,23.97787 -23.151,-18.19011 -191.8229,-240.60548 -200.0911,-252.181 -8.2683,-11.57552 -124.8503,-144.694007 -124.8503,-144.694007 z"
         style="fill:none;stroke:#000000;stroke-width:0.26458332px;stroke-linecap:butt;stroke-linejoin:miter;stroke-opacity:1" />
    </clipPath>
    <clipPath
       id="clipPath1368-9"
       clipPathUnits="userSpaceOnUse">
      <path
         inkscape:connector-curvature="0"
         id="path1370-20"
         d="m -5228.0013,43.165363 512.6302,210.013017 423.3333,-214.973954 -249.7005,377.858074 c 0,0 -338.1706,42.16797 -361.3216,23.97787 -23.151,-18.19011 -191.8229,-240.60548 -200.0911,-252.181 -8.2683,-11.57552 -124.8503,-144.694007 -124.8503,-144.694007 z"
         style="fill:none;stroke:#000000;stroke-width:0.26458332px;stroke-linecap:butt;stroke-linejoin:miter;stroke-opacity:1" />
    </clipPath>
    <clipPath
       id="clipPath958"
       clipPathUnits="userSpaceOnUse">
      <path
         inkscape:connector-curvature="0"
         id="path956"
         d="m -5228.0013,43.165363 512.6302,210.013017 423.3333,-214.973954 -249.7005,377.858074 c 0,0 -338.1706,42.16797 -361.3216,23.97787 -23.151,-18.19011 -191.8229,-240.60548 -200.0911,-252.181 -8.2683,-11.57552 -124.8503,-144.694007 -124.8503,-144.694007 z"
         style="fill:none;stroke:#000000;stroke-width:0.26458332px;stroke-linecap:butt;stroke-linejoin:miter;stroke-opacity:1" />
    </clipPath>
  </defs>
  <sodipodi:namedview
     id="base"
     pagecolor="#ffffff"
     bordercolor="#666666"
     borderopacity="1.0"
     inkscape:pageopacity="0.0"
     inkscape:pageshadow="2"
     inkscape:zoom="1.4"
     inkscape:cx="-336.63474"
     inkscape:cy="-6.7232852"
     inkscape:document-units="mm"
     inkscape:current-layer="layer1"
     showgrid="false"
     inkscape:window-width="1920"
     inkscape:window-height="1018"
     inkscape:window-x="1672"
     inkscape:window-y="-8"
     inkscape:window-maximized="1" />
  <metadata
     id="metadata5">
    <rdf:RDF>
      <cc:Work
         rdf:about="">
        <dc:format>image/svg+xml</dc:format>
        <dc:type
           rdf:resource="http://purl.org/dc/dcmitype/StillImage" />
        <dc:title />
      </cc:Work>
    </rdf:RDF>
  </metadata>
  <g
     inkscape:label="Layer 1"
     inkscape:groupmode="layer"
     id="layer1"
     transform="translate(-171.25207,-140.00759)">
    <path
       inkscape:transform-center-y="-1.0615891e-05"
       inkscape:transform-center-x="-53.043048"
       d="m -172.79326,150.16619 c -1.4961,0.86378 -8.31171,-3.07122 -8.31171,-4.79877 0,-1.72756 6.81561,-5.66255 8.31171,-4.79878 1.49611,0.86378 1.49611,8.73377 0,9.59755 z"
       inkscape:randomized="0"
       inkscape:rounded="0.18"
       inkscape:flatsided="true"
       sodipodi:arg2="2.0943951"
       sodipodi:arg1="1.0471976"
       sodipodi:r2="2.7705722"
       sodipodi:r1="5.5411444"
       sodipodi:cy="145.36742"
       sodipodi:cx="-175.56383"
       sodipodi:sides="3"
       id="path6363-9-4"
       style="opacity:1;fill:#ffffff;fill-opacity:1;fill-rule:nonzero;stroke:#000000;stroke-width:0.83814651;stroke-linecap:round;stroke-linejoin:round;stroke-miterlimit:4;stroke-dasharray:none;stroke-opacity:1;paint-order:stroke fill markers"
       sodipodi:type="star"
       transform="scale(-1,1)" />
    <path
       clip-path="url(#clipPath1368-9)"
       sodipodi:type="star"
       style="opacity:0.23299997;fill:#000000;fill-opacity:1;fill-rule:nonzero;stroke:#000000;stroke-width:41.24499893;stroke-linecap:round;stroke-linejoin:round;stroke-miterlimit:4;stroke-dasharray:none;stroke-opacity:1;paint-order:stroke fill markers"
       id="path1352-9"
       sodipodi:sides="3"
       sodipodi:cx="-4740.873"
       sodipodi:cy="129.77562"
       sodipodi:r1="272.67847"
       sodipodi:r2="136.33922"
       sodipodi:arg1="1.0471976"
       sodipodi:arg2="2.0943951"
       inkscape:flatsided="true"
       inkscape:rounded="0.18"
       inkscape:randomized="0"
       d="m -4604.5338,365.92211 c -73.6232,42.50636 -409.0177,-151.13377 -409.0177,-236.1465 0,-85.012736 335.3945,-278.65283 409.0177,-236.14646 73.6232,42.506367 73.6232,429.78659 0,472.29296 z"
       inkscape:transform-center-x="-53.04306"
       inkscape:transform-center-y="-5.3657526e-06"
       transform="matrix(-0.02032117,0,0,0.02032117,79.223708,142.73021)" />
    <path
       sodipodi:type="star"
       style="opacity:1;fill:#4d4d4d;fill-opacity:1;fill-rule:nonzero;stroke:#000000;stroke-width:0.68039328;stroke-linecap:round;stroke-linejoin:round;stroke-miterlimit:4;stroke-dasharray:none;stroke-opacity:1;paint-order:stroke fill markers"
       id="path6331-82-8"
       sodipodi:sides="3"
       sodipodi:cx="-175.55617"
       sodipodi:cy="145.30537"
       sodipodi:r1="4.4142723"
       sodipodi:r2="2.2071364"
       sodipodi:arg1="1.0471976"
       sodipodi:arg2="2.0943951"
       inkscape:flatsided="true"
       inkscape:rounded="0.18"
       inkscape:randomized="0"
       d="m -173.34903,149.12825 c -1.19186,0.68811 -6.62141,-2.44664 -6.62141,-3.82288 0,-1.37623 5.42956,-4.51098 6.62141,-3.82287 1.19185,0.68812 1.19185,6.95763 0,7.64575 z"
       inkscape:transform-center-x="-42.255974"
       inkscape:transform-center-y="-2.4622529e-05"
       transform="scale(-1,1)" />
    <path
       inkscape:connector-curvature="0"
       id="path6331-82-2-08"
       d="m 173.83412,141.32096 c 1.73912,0.005 6.16,2.67846 6.16,3.9203 0,0.22632 -0.14688,0.50019 -0.39755,0.79681 -1.44533,-1.48117 -5.07424,-3.3524 -6.02224,-2.80508 -0.66081,0.38152 -0.95523,2.47878 -0.88328,4.38923 -0.43181,-2.09427 -0.20463,-5.69215 0.68165,-6.20384 0.1164,-0.0672 0.2732,-0.0979 0.46142,-0.0974 z"
       style="opacity:0.22300002;fill:#ffffff;fill-opacity:1;fill-rule:nonzero;stroke:none;stroke-width:0.25973743;stroke-linecap:round;stroke-linejoin:round;stroke-miterlimit:4;stroke-dasharray:none;stroke-opacity:1;paint-order:stroke fill markers" />
    <ellipse
       transform="matrix(-0.89258672,-0.45087575,-0.42258044,0.90632542,0,0)"
       ry="1.0977585"
       rx="1.5840437"
       cy="47.821182"
       cx="-219.34729"
       id="path1119-7"
       style="opacity:0.32000002;fill:#ffffff;fill-opacity:1;fill-rule:nonzero;stroke:none;stroke-width:0.00289164;stroke-linecap:round;stroke-linejoin:round;stroke-miterlimit:4;stroke-dasharray:none;stroke-opacity:1;paint-order:stroke fill markers" />
    <path
       inkscape:connector-curvature="0"
       id="path6331-82-27-0"
       d="m 172.5632,143.54791 c -0.0436,1.87635 0.25297,3.86308 0.88965,4.23563 1.01106,0.59161 5.07151,-1.60489 6.28017,-3.13637 0.15727,0.22475 0.24618,0.43223 0.24618,0.61054 0,1.39479 -5.42956,4.57181 -6.6214,3.87442 -0.7945,-0.46489 -1.05934,-3.44329 -0.7946,-5.58422 z"
       style="opacity:0.68300003;fill:#000000;fill-opacity:1;fill-rule:nonzero;stroke:none;stroke-width:0.26148266;stroke-linecap:round;stroke-linejoin:round;stroke-miterlimit:4;stroke-dasharray:none;stroke-opacity:1;paint-order:stroke fill markers" />
    <path
       sodipodi:type="star"
       style="opacity:1;fill:#ffffff;fill-opacity:1;fill-rule:nonzero;stroke:#000000;stroke-width:0.65931964;stroke-linecap:round;stroke-linejoin:round;stroke-miterlimit:4;stroke-dasharray:none;stroke-opacity:1;paint-order:stroke fill markers"
       id="path1388-6"
       sodipodi:sides="3"
       sodipodi:cx="-184.80446"
       sodipodi:cy="145.40846"
       sodipodi:r1="4.3588858"
       sodipodi:r2="2.1794426"
       sodipodi:arg1="1.0471976"
       sodipodi:arg2="2.0943951"
       inkscape:flatsided="true"
       inkscape:rounded="0.18"
       inkscape:randomized="0"
       d="m -182.62502,149.18337 c -1.1769,0.67948 -6.53832,-2.41594 -6.53832,-3.77491 0,-1.35896 5.36143,-4.45439 6.53832,-3.7749 1.1769,0.67948 1.1769,6.87033 0,7.54981 z"
       inkscape:transform-center-x="-41.725627"
       inkscape:transform-center-y="-1.5564323e-05"
       transform="scale(-1,1)" />
    <path
       transform="matrix(-0.01598544,0,0,0.01598544,109.01947,143.33391)"
       inkscape:transform-center-y="-1.0374714e-05"
       inkscape:transform-center-x="-41.725805"
       d="m -4604.5338,365.92211 c -73.6232,42.50636 -409.0177,-151.13377 -409.0177,-236.1465 0,-85.012736 335.3945,-278.65283 409.0177,-236.14646 73.6232,42.506367 73.6232,429.78659 0,472.29296 z"
       inkscape:randomized="0"
       inkscape:rounded="0.18"
       inkscape:flatsided="true"
       sodipodi:arg2="2.0943951"
       sodipodi:arg1="1.0471976"
       sodipodi:r2="136.33922"
       sodipodi:r1="272.67847"
       sodipodi:cy="129.77562"
       sodipodi:cx="-4740.873"
       sodipodi:sides="3"
       id="path1390-0"
       style="opacity:0.23299997;fill:#000000;fill-opacity:1;fill-rule:nonzero;stroke:#000000;stroke-width:41.24499893;stroke-linecap:round;stroke-linejoin:round;stroke-miterlimit:4;stroke-dasharray:none;stroke-opacity:1;paint-order:stroke fill markers"
       sodipodi:type="star"
       clip-path="url(#clipPath1368-9)" />
    <path
       inkscape:transform-center-y="-1.0314461e-05"
       inkscape:transform-center-x="-33.240041"
       d="m -183.06219,148.3669 c -0.93756,0.5413 -5.20867,-1.92462 -5.20867,-3.00722 0,-1.0826 4.27111,-3.54852 5.20867,-3.00722 0.93756,0.5413 0.93756,5.47314 0,6.01444 z"
       inkscape:randomized="0"
       inkscape:rounded="0.18"
       inkscape:flatsided="true"
       sodipodi:arg2="2.0943951"
       sodipodi:arg1="1.0471976"
       sodipodi:r2="1.7362214"
       sodipodi:r1="3.4724433"
       sodipodi:cy="145.35968"
       sodipodi:cx="-184.79842"
       sodipodi:sides="3"
       id="path1392-2"
       style="opacity:1;fill:#4d4d4d;fill-opacity:1;fill-rule:nonzero;stroke:#000000;stroke-width:0.5352245;stroke-linecap:round;stroke-linejoin:round;stroke-miterlimit:4;stroke-dasharray:none;stroke-opacity:1;paint-order:stroke fill markers"
       sodipodi:type="star"
       transform="scale(-1,1)" />
    <path
       style="opacity:0.22300002;fill:#ffffff;fill-opacity:1;fill-rule:nonzero;stroke:none;stroke-width:0.20431983;stroke-linecap:round;stroke-linejoin:round;stroke-miterlimit:4;stroke-dasharray:none;stroke-opacity:1;paint-order:stroke fill markers"
       d="m 183.44379,142.22535 c 1.36806,0.004 4.8457,2.10699 4.8457,3.08387 0,0.17803 -0.11554,0.39347 -0.31273,0.6268 -1.13695,-1.16515 -3.9916,-2.63713 -4.73733,-2.20658 -0.51982,0.30012 -0.75143,1.9499 -0.69483,3.45273 -0.33968,-1.64743 -0.16096,-4.47767 0.53622,-4.88018 0.0916,-0.0529 0.21491,-0.077 0.36297,-0.0766 z"
       id="path1394-2"
       inkscape:connector-curvature="0" />
    <ellipse
       style="opacity:0.32000002;fill:#ffffff;fill-opacity:1;fill-rule:nonzero;stroke:none;stroke-width:0.00227468;stroke-linecap:round;stroke-linejoin:round;stroke-miterlimit:4;stroke-dasharray:none;stroke-opacity:1;paint-order:stroke fill markers"
       id="ellipse1396-4"
       cx="-228.02312"
       cy="44.286667"
       rx="1.2460722"
       ry="0.86354065"
       transform="matrix(-0.89258672,-0.45087575,-0.42258044,0.90632542,0,0)" />
    <path
       style="opacity:0.68300003;fill:#000000;fill-opacity:1;fill-rule:nonzero;stroke:none;stroke-width:0.20569272;stroke-linecap:round;stroke-linejoin:round;stroke-miterlimit:4;stroke-dasharray:none;stroke-opacity:1;paint-order:stroke fill markers"
       d="m 182.44403,143.97716 c -0.0343,1.47601 0.199,3.03886 0.69984,3.33192 0.79534,0.46538 3.98945,-1.26247 4.94023,-2.46719 0.12372,0.17679 0.19366,0.34001 0.19366,0.48027 0,1.0972 -4.27111,3.59637 -5.20867,3.04777 -0.62498,-0.3657 -0.83331,-2.70863 -0.62506,-4.39277 z"
       id="path1398-5"
       inkscape:connector-curvature="0" />
  </g>
</svg>
